<svg id="Layer_1" data-name="Layer 1" xmlns="http://www.w3.org/2000/svg" viewBox="0 0 6000 4000"><defs><style>.cls-1{fill:#dbb721;}.cls-2{fill:#2f2f33;}</style></defs><title>WT Home Logos</title><path class="cls-1" d="M2416.79,2943.39q-31.45,0-56.61-7.13t-43.2-20.55a91.63,91.63,0,0,1-27.89-33.34q-9.86-19.91-10.69-45.08h72.13q2.93,25.58,19.5,37.32t46.76,11.74a94.18,94.18,0,0,0,20.13-2.1,58.63,58.63,0,0,0,17.19-6.5,34.51,34.51,0,0,0,12-11.32,30.21,30.21,0,0,0,4.4-16.56q0-10.07-4.82-16.78t-14-11.32a120.31,120.31,0,0,0-22.65-8.18q-13.43-3.56-30.19-7.34-22.65-5-42.78-11.32a132.26,132.26,0,0,1-35.23-16.56,74,74,0,0,1-23.69-26q-8.6-15.73-8.6-40t9.23-41.94a81.42,81.42,0,0,1,25.58-29.15q16.36-11.53,38.58-17.19a195,195,0,0,1,48.23-5.66,182,182,0,0,1,47.39,5.87q21.8,5.88,37.74,17.61a90.05,90.05,0,0,1,25.58,29.14q9.64,17.41,11.32,40.47h-70q-2.94-18.45-16.77-28.52T2408,2672.9q-22.23,0-35.65,8.81t-13.42,23.48q0,9.23,5,15.1t14.68,10.27a130.27,130.27,0,0,0,23.69,7.76q14,3.36,32.5,7.55a400.24,400.24,0,0,1,40.47,11.11,124.41,124.41,0,0,1,34.39,17.4,83.2,83.2,0,0,1,23.9,27.26q9,16.35,9,41.1,0,24.33-9.64,43a91.59,91.59,0,0,1-26.63,31.45,123,123,0,0,1-39.84,19.5A176,176,0,0,1,2416.79,2943.39Z"/><path class="cls-1" d="M2715.29,2943.39q-35.65,0-64.16-12.16a140,140,0,0,1-48.65-34,149.51,149.51,0,0,1-30.82-51.58q-10.69-29.77-10.69-64.58,0-35.23,10.69-65a147.46,147.46,0,0,1,30.82-51.37,143.87,143.87,0,0,1,48.65-34q28.51-12.37,64.16-12.37,35.23,0,63.74,12.37a143.92,143.92,0,0,1,48.65,34,147.45,147.45,0,0,1,30.82,51.37q10.69,29.78,10.69,65,0,34.82-10.69,64.58a149.5,149.5,0,0,1-30.82,51.58,140.06,140.06,0,0,1-48.65,34Q2750.51,2943.39,2715.29,2943.39Zm.42-58.71q20.13,0,35.23-8a72.64,72.64,0,0,0,25.16-21.81,97.91,97.91,0,0,0,15.1-32.71,159.1,159.1,0,0,0,5-41.1,161.58,161.58,0,0,0-5-41.3,102.63,102.63,0,0,0-15.1-33.34,71.14,71.14,0,0,0-25.16-22.23q-15.1-8-35.23-8t-35.44,8a72.39,72.39,0,0,0-25.58,22.23,103.12,103.12,0,0,0-15.52,33.34,155.32,155.32,0,0,0-5.24,41.3,152.94,152.94,0,0,0,5.24,41.1,98.39,98.39,0,0,0,15.52,32.71,74,74,0,0,0,25.58,21.81Q2695.58,2884.68,2715.71,2884.68Z"/><path class="cls-1" d="M2903.08,2623.83h71.29v250.78h143.84v61.23H2903.08Z"/><path class="cls-1" d="M3252.79,2623.83H3327l112.81,312h-75.49l-19.71-59.55H3231.4l-19.29,59.55H3140.4Zm-4.61,201.3h80.1l-18.87-58.29q-5-15.93-8.81-30.82t-6.29-26.63q-2.94-13.84-5-25.58h-.84q-3.36,15.52-6.71,30.19-3.36,12.58-6.92,27t-7.34,25.79Z"/><path class="cls-1" d="M3462,2623.83h148.46a145.63,145.63,0,0,1,42.15,5.87,98,98,0,0,1,33.76,17.4,83,83,0,0,1,22.44,28.1q8.18,16.57,8.18,38,0,27.68-13.84,47t-44,28.94v1.26q23.48,7.13,34.6,21.18t14.47,39.21q2.09,15.94,3.15,30t2.1,25.17a130.44,130.44,0,0,0,2.73,18q1.67,6.92,5.45,8.6v3.35h-70.45q-3.36-1.67-4.82-8.39a155,155,0,0,1-2.52-16.56q-1.05-9.85-1.89-22t-2.1-25.16q-2.94-23.48-15.31-35.23t-38.37-11.74H3533.3v119.1H3462Zm71.29,140.07h63.32q23.91,0,36.49-11.11t12.58-30q0-19.28-11.53-30.82t-35.43-11.53H3533.3Z"/><path class="cls-2" d="M1761.71,1708.6h88.8l55.8,213q3,13.81,6.3,30.3t6.3,30.3q3,16.2,6,33h1.2q3.6-15.59,6.6-31.2,3-13.8,6.3-29.7t6.9-30.3l46.8-215.4h84l46.8,214.8q3,14.4,6.6,30.3t6.6,29.7q3,15.61,6.6,31.8h1.2q3.6-16.2,7.2-33,3-13.79,6.9-30.6t6.9-30.6l54-212.4h85.8l-122.4,429h-81l-52.2-229.8q-3-12-5.4-25.2t-4.8-24.6q-2.4-13.19-4.8-26.4h-1.2q-1.8,13.2-4.2,26.4-1.8,11.4-4.2,24.6t-5.4,25.2l-52.8,229.8h-80.4Z"/><path class="cls-2" d="M2333.2,1708.6h81.6v73.2h-81.6Zm0,121.2h81.6v307.8h-81.6Z"/><path class="cls-2" d="M2462.08,1708.6h81.6v429h-81.6Z"/><path class="cls-2" d="M2711.08,2146.6q-28.8,0-52.8-11.4a117.25,117.25,0,0,1-41.1-32.4q-17.1-21-26.7-51.3t-9.6-67.5q0-36,9.6-66t27.3-51.3a128.63,128.63,0,0,1,41.7-33.3q24-12,52.8-12,32.4,0,53.4,13.2a108.65,108.65,0,0,1,33.6,32.4h1.8V1708.6h81.6v429h-78.6v-40.2h-1.2a106.08,106.08,0,0,1-36.6,35.7Q2743.47,2146.6,2711.08,2146.6Zm18-68.4q36.59,0,55.2-24.9t18.6-67.5a190.62,190.62,0,0,0-3.9-40.2q-3.91-18-12.3-30.9a58.8,58.8,0,0,0-21.9-20.1q-13.5-7.2-33.3-7.2-33.61,0-50.7,27t-17.1,69.6q0,45,16.8,69.6T2729.08,2078.2Z"/><path class="cls-2" d="M2930.5,1954h162.6v70.2H2930.5Z"/><path class="cls-2" d="M3015.8,1708.6h345v73.2h-129v355.8h-87V1781.8h-129Z"/><path class="cls-2" d="M3320.77,2174.2h28.8q24.59,0,35.1-11.4t10.5-30.6a86.83,86.83,0,0,0-1.2-13.5,155.64,155.64,0,0,0-3.9-17.1q-2.7-9.59-7.2-22.5t-11.1-30.3l-82.8-219h85.8l45.6,138.6q3.6,10.8,6.9,22.5t6.3,21.9q3,11.4,6.6,22.8h1.2q2.39-11.39,5.4-22.8,2.39-10.2,5.7-21.9t6.9-22.5l43.2-138.6h82.2l-107.4,315.6q-9,25.79-18.3,43.5t-21.6,28.8a72.78,72.78,0,0,1-28.8,15.9q-16.51,4.8-39.9,4.8h-48Z"/><path class="cls-2" d="M3607.63,1829.8h78.6v38.4h1.8a126.11,126.11,0,0,1,36.9-33.6q21.9-13.19,53.7-13.2,30.6,0,55.2,12a126.87,126.87,0,0,1,42.3,33.3q17.69,21.3,27,51.3t9.3,66q0,37.21-9.6,67.5t-27.3,51.3a121.53,121.53,0,0,1-42.3,32.4q-24.61,11.39-54,11.4-32.4,0-54-12a98.6,98.6,0,0,1-34.8-31.8h-1.2v135.6h-81.6Zm154.2,249q31.19,0,49.5-24.3t18.3-68.1q0-43.79-16.5-71.4t-54.3-27.6q-19.21,0-32.7,7.8a65.61,65.61,0,0,0-22.2,21q-8.7,13.21-12.6,31.5a185.07,185.07,0,0,0-3.9,38.7q0,42,18.9,67.2T3761.83,2078.8Z"/><path class="cls-2" d="M4094.29,2146.6q-38.41,0-68.1-12.6t-50.1-34.5a145.55,145.55,0,0,1-30.9-51.9,192.85,192.85,0,0,1-10.5-64.2q0-34.2,11.1-63.9a152.77,152.77,0,0,1,31.2-51.3,148,148,0,0,1,48-34.2q27.9-12.6,61.5-12.6,37.2,0,65.4,13.5a131.3,131.3,0,0,1,47.4,38.1q19.2,24.61,29.1,58.5t9.9,75.3h-223.2q4.79,36,24.3,56.4t54.3,20.4q24,0,38.4-10.2a58.22,58.22,0,0,0,21-27.6h80.4a121.44,121.44,0,0,1-15.3,38.7,118.47,118.47,0,0,1-28.8,32.1q-17.7,13.81-41.7,21.9T4094.29,2146.6Zm-6.6-262.2q-32.4,0-49.2,17.7t-22.2,48.3h136.8q-1.8-29.39-19.5-47.7T4087.69,1884.4Z"/><path class="cls-2" d="M2873.65,1608.6l151.55-572H3120l-150.19,572Z"/><path class="cls-2" d="M2537.51,1366.66v-89.48h120.66V1156.53h89.48v120.66h122v89.48h-122v122h-89.48v-122Z"/><path class="cls-2" d="M3130.34,1366.66v-89.48H3251V1156.53h89.48v120.66h122v89.48h-122v122H3251v-122Z"/></svg>