<svg id="Layer_1" data-name="Layer 1" xmlns="http://www.w3.org/2000/svg" viewBox="0 0 6000 4000"><defs><style>.cls-1{fill:#2f2f33;}</style></defs><title>WT Home Logos</title><path class="cls-1" d="M1419.43,2030.75h113.35L1604,2302.63q3.82,17.63,8,38.68t8,38.67q3.82,20.68,7.66,42.12h1.53q4.59-19.91,8.42-39.82,3.82-17.61,8-37.91t8.81-38.68l59.74-274.94H1821.5l59.74,274.17q3.82,18.38,8.43,38.68t8.42,37.91q3.82,19.92,8.42,40.59H1908q4.6-20.68,9.19-42.12,3.82-17.61,8.81-39.06t8.81-39.06l68.93-271.11h109.52l-156.23,547.58H1853.66L1787,2285q-3.84-15.31-6.89-32.17t-6.13-31.4q-3.07-16.84-6.13-33.7h-1.53q-2.3,16.85-5.36,33.7-2.3,14.56-5.36,31.4t-6.89,32.17l-67.39,293.32H1578.72Z"/><path class="cls-1" d="M2148.89,2030.75H2253v93.43H2148.89Zm0,154.7H2253v392.88H2148.89Z"/><path class="cls-1" d="M2313.39,2030.75h104.16v547.58H2313.39Z"/><path class="cls-1" d="M2631.22,2589.82q-36.76,0-67.39-14.55a149.66,149.66,0,0,1-52.46-41.35q-21.83-26.8-34.08-65.48T2465,2382.28q0-46,12.25-84.24t34.85-65.48a164.18,164.18,0,0,1,53.23-42.5q30.62-15.31,67.39-15.32,41.36,0,68.16,16.85t42.89,41.36h2.3V2030.75h104.16v547.58H2749.92V2527h-1.53a135.41,135.41,0,0,1-46.72,45.57Q2672.56,2589.82,2631.22,2589.82Zm23-87.31q46.71,0,70.46-31.78t23.74-86.16q0-28.33-5-51.31t-15.7-39.44a75.05,75.05,0,0,0-28-25.66q-17.23-9.19-42.5-9.19-42.9,0-64.71,34.46t-21.83,88.84q0,57.44,21.44,88.84T2654.19,2502.52Z"/><path class="cls-1" d="M2911.28,2344h207.54v89.6H2911.28Z"/><path class="cls-1" d="M3020.16,2030.75h440.36v93.43H3295.87v454.15h-111V2124.19H3020.16Z"/><path class="cls-1" d="M3409.44,2625.05h36.76q31.39,0,44.8-14.55t13.4-39.06a110.83,110.83,0,0,0-1.53-17.23,198.66,198.66,0,0,0-5-21.83q-3.45-12.24-9.19-28.72T3474.53,2465l-105.69-279.54h109.52l58.2,176.91q4.6,13.78,8.81,28.72t8,28q3.82,14.55,8.42,29.1h1.53q3.05-14.54,6.89-29.1,3.05-13,7.27-28t8.81-28.72l55.14-176.91h104.92l-137.09,402.84q-11.49,32.92-23.36,55.52t-27.57,36.76a92.9,92.9,0,0,1-36.76,20.3q-21.07,6.12-50.93,6.13h-61.27Z"/><path class="cls-1" d="M3775.59,2185.45h100.33v49h2.3a161,161,0,0,1,47.1-42.89q27.95-16.84,68.55-16.85,39.06,0,70.46,15.32a161.94,161.94,0,0,1,54,42.5q22.58,27.19,34.46,65.48t11.87,84.24q0,47.5-12.25,86.16t-34.84,65.48a155.12,155.12,0,0,1-54,41.35q-31.41,14.54-68.93,14.55-41.36,0-68.93-15.32a125.86,125.86,0,0,1-44.42-40.59h-1.53V2707H3775.59Zm196.82,317.83q39.81,0,63.18-31t23.36-86.92q0-55.89-21.06-91.14T3968.58,2259q-24.52,0-41.74,10a83.75,83.75,0,0,0-28.34,26.8q-11.11,16.86-16.08,40.21a236.23,236.23,0,0,0-5,49.4q0,53.61,24.12,85.77T3972.41,2503.28Z"/><path class="cls-1" d="M4396.77,2589.82q-49,0-86.92-16.08t-63.95-44q-26-27.95-39.44-66.25t-13.4-81.95q0-43.65,14.17-81.56t39.82-65.48a188.84,188.84,0,0,1,61.27-43.65q35.62-16.08,78.5-16.08,47.48,0,83.48,17.23a167.6,167.6,0,0,1,60.5,48.63q24.5,31.41,37.14,74.67t12.64,96.12h-284.9q6.12,46,31,72t69.31,26q30.62,0,49-13t26.8-35.23h102.62a155,155,0,0,1-19.53,49.4,151.21,151.21,0,0,1-36.76,41q-22.6,17.63-53.23,28T4396.77,2589.82Zm-8.42-334.68q-41.36,0-62.8,22.59t-28.34,61.65h174.61q-2.3-37.52-24.89-60.89T4388.35,2255.15Z"/><path class="cls-1" d="M2838.72,1903.11,3032.15,1173h121l-191.71,730.11Z"/><path class="cls-1" d="M2409.68,1594.3V1480.09h154v-154h114.21v154h155.74V1594.3H2677.89V1750H2563.68V1594.3Z"/><path class="cls-1" d="M3166.37,1594.3V1480.09h154v-154h114.21v154h155.74V1594.3H3434.59V1750H3320.38V1594.3Z"/></svg>