<svg id="Layer_1" data-name="Layer 1" xmlns="http://www.w3.org/2000/svg" viewBox="0 0 6000 4000"><defs><style>.cls-1{fill:#36cca1;}</style></defs><title>WT Home Logos</title><path class="cls-1" d="M2409.43,2162.33q-34,0-62.37-12.18a142,142,0,0,1-48.51-33.81q-20.16-21.63-31.29-51.45t-11.13-64.68q0-34.85,10.92-64.68a154.28,154.28,0,0,1,30.87-51.66,141,141,0,0,1,48.3-34.23q28.35-12.38,63.21-12.39a178.1,178.1,0,0,1,47.88,6.09q21.83,6.09,37.8,18.27a111.77,111.77,0,0,1,33.39,37.8,132.85,132.85,0,0,1,14.91,48.72H2472a59,59,0,0,0-20-36.75q-16.6-14.49-43-14.49-20.16,0-35.07,7.77a69.44,69.44,0,0,0-24.78,21.63,100.55,100.55,0,0,0-14.91,32.76,159.43,159.43,0,0,0-5,41.16,142.66,142.66,0,0,0,5.67,41.16,102.24,102.24,0,0,0,16,32.55,74,74,0,0,0,25.2,21.42,71.09,71.09,0,0,0,33.39,7.77q29,0,45.78-16.38t19.32-40.74h71.82a120.27,120.27,0,0,1-11.76,44.31,134.58,134.58,0,0,1-26,36.75,113,113,0,0,1-42,26.46Q2442.19,2162.33,2409.43,2162.33Z"/><path class="cls-1" d="M2717.87,2162.75q-35.7,0-64.26-12.18a140.19,140.19,0,0,1-48.72-34,149.76,149.76,0,0,1-30.87-51.66q-10.71-29.82-10.71-64.68,0-35.28,10.71-65.1a147.7,147.7,0,0,1,30.87-51.45,144.09,144.09,0,0,1,48.72-34q28.56-12.38,64.26-12.39,35.28,0,63.84,12.39a144.14,144.14,0,0,1,48.72,34,147.68,147.68,0,0,1,30.87,51.45q10.71,29.83,10.71,65.1,0,34.87-10.71,64.68a149.75,149.75,0,0,1-30.87,51.66,140.24,140.24,0,0,1-48.72,34Q2753.15,2162.75,2717.87,2162.75Zm.42-58.8q20.16,0,35.28-8a72.71,72.71,0,0,0,25.2-21.84,98,98,0,0,0,15.12-32.76,159.35,159.35,0,0,0,5-41.16,161.85,161.85,0,0,0-5-41.37,102.8,102.8,0,0,0-15.12-33.39,71.22,71.22,0,0,0-25.2-22.26q-15.12-8-35.28-8t-35.49,8a72.47,72.47,0,0,0-25.62,22.26,103.3,103.3,0,0,0-15.54,33.39,155.58,155.58,0,0,0-5.25,41.37,153.19,153.19,0,0,0,5.25,41.16,98.53,98.53,0,0,0,15.54,32.76A74,74,0,0,0,2682.8,2096Q2698.13,2104,2718.29,2103.95Z"/><path class="cls-1" d="M2905.95,1842.71h71.4v251.16h144.06v61.32H2905.95Z"/><path class="cls-1" d="M3283.82,2162.75q-35.7,0-64.26-12.18a140.2,140.2,0,0,1-48.72-34,149.74,149.74,0,0,1-30.87-51.66q-10.71-29.82-10.71-64.68,0-35.28,10.71-65.1a147.68,147.68,0,0,1,30.87-51.45,144.09,144.09,0,0,1,48.72-34q28.56-12.38,64.26-12.39,35.28,0,63.84,12.39a144.17,144.17,0,0,1,48.72,34,147.71,147.71,0,0,1,30.87,51.45q10.71,29.83,10.71,65.1,0,34.87-10.71,64.68a149.77,149.77,0,0,1-30.87,51.66,140.27,140.27,0,0,1-48.72,34Q3319.09,2162.75,3283.82,2162.75Zm.42-58.8q20.16,0,35.28-8a72.71,72.71,0,0,0,25.2-21.84,98.06,98.06,0,0,0,15.12-32.76,159.31,159.31,0,0,0,5-41.16,161.81,161.81,0,0,0-5-41.37,102.82,102.82,0,0,0-15.12-33.39,71.23,71.23,0,0,0-25.2-22.26q-15.12-8-35.28-8t-35.49,8a72.45,72.45,0,0,0-25.62,22.26,103.28,103.28,0,0,0-15.54,33.39,155.58,155.58,0,0,0-5.25,41.37,153.19,153.19,0,0,0,5.25,41.16,98.51,98.51,0,0,0,15.54,32.76,74,74,0,0,0,25.62,21.84Q3264.08,2104,3284.24,2103.95Z"/><path class="cls-1" d="M3471.89,1842.71h148.68a145.85,145.85,0,0,1,42.21,5.88,98.16,98.16,0,0,1,33.81,17.43,83.15,83.15,0,0,1,22.47,28.14q8.19,16.6,8.19,38,0,27.72-13.86,47t-44.1,29v1.26q23.52,7.15,34.65,21.21t14.49,39.27q2.1,16,3.15,30t2.1,25.2a130.59,130.59,0,0,0,2.73,18.06q1.67,6.93,5.46,8.61v3.36h-70.56q-3.37-1.67-4.83-8.4a155.11,155.11,0,0,1-2.52-16.59q-1.05-9.86-1.89-22t-2.1-25.2q-2.94-23.52-15.33-35.28t-38.43-11.76h-52.92v119.28h-71.4Zm71.4,140.28h63.42q23.94,0,36.54-11.13t12.6-30q0-19.31-11.55-30.87t-35.49-11.55h-65.52Z"/></svg>